<svg xmlns="http://www.w3.org/2000/svg" viewBox="0 0 48 48" width="48" height="48" role="img" aria-label="Signia Home Care">
  <defs>
    <linearGradient id="signiaMark" x1="0" y1="0" x2="1" y2="1">
      <stop offset="0" stop-color="#0B1E52"/>
      <stop offset="0.55" stop-color="#1D4ED8"/>
      <stop offset="1" stop-color="#1466A6"/>
    </linearGradient>
  </defs>
  <rect x="0" y="0" width="48" height="48" rx="12" fill="url(#signiaMark)"/>
  <g transform="translate(12,12)" fill="none" stroke="#ffffff" stroke-width="2.1" stroke-linecap="round" stroke-linejoin="round">
    <path d="M4 11.2 L12 4.8 L20 11.2"/>
    <path d="M6 10.6 V18.2 Q6 19.7 7.5 19.7 H16.5 Q18 19.7 18 18.2 V10.6"/>
  </g>
  <path transform="translate(12,12)" fill="#ffffff" d="M12 17 C12 17 8.7 14.95 8.7 12.85 C8.7 11.75 9.55 11.05 10.42 11.05 C11.03 11.05 11.62 11.4 12 11.95 C12.38 11.4 12.97 11.05 13.58 11.05 C14.45 11.05 15.3 11.75 15.3 12.85 C15.3 14.95 12 17 12 17 Z"/>
</svg>
